<svg version="1.1" xmlns="http://www.w3.org/2000/svg" xmlns:xlink="http://www.w3.org/1999/xlink">
    <!-- вк -->
    <symbol id="vk" viewBox="0 0 36 36">
        <path fill-rule="evenodd" clip-rule="evenodd" d="M2.91048 2.72127C0.379883 5.25188 0.379883 9.32481 0.379883 17.4707V18.9107C0.379883 27.0565 0.379883 31.1295 2.91048 33.6601C5.44109 36.1907 9.51402 36.1907 17.6599 36.1907H19.0999C27.2457 36.1907 31.3187 36.1907 33.8493 33.6601C36.3799 31.1295 36.3799 27.0565 36.3799 18.9107V17.4707C36.3799 9.32481 36.3799 5.25188 33.8493 2.72127C31.3187 0.190674 27.2457 0.190674 19.0999 0.190674H17.6599C9.51402 0.190674 5.44109 0.190674 2.91048 2.72127ZM6.45496 11.1408C6.64993 20.5008 11.3299 26.1257 19.5349 26.1257H20V20.7707C23.015 21.0707 25.2948 23.2757 26.2098 26.1257H30.4699C29.2999 21.8657 26.2248 19.5107 24.3048 18.6107C26.2248 17.5007 28.9248 14.8007 29.5698 11.1408H25.6997C24.8597 14.1108 22.37 16.8107 20 17.0657V11.1408H16.1298V21.5207C13.7299 20.9207 10.6999 18.0107 10.5649 11.1408H6.45496Z" fill="currentColor" />
    </symbol>
    <!-- зен -->
    <symbol id="zen" viewBox="0 0 36 36">
       <path d="M22.0437 21.6611C19.2151 24.5797 19.0094 28.2183 18.7651 36.1897C26.1966 36.1897 31.3265 36.164 33.9751 33.5926C36.5466 30.944 36.5723 25.5697 36.5723 18.3826C28.6008 18.6397 24.9623 18.8326 22.0437 21.6611ZM0.572266 18.3826C0.572266 25.5697 0.59798 30.944 3.16941 33.5926C5.81798 36.164 10.948 36.1897 18.3794 36.1897C18.1223 28.2183 17.9294 24.5797 15.1008 21.6611C12.1823 18.8326 8.54369 18.6268 0.572266 18.3826ZM18.3794 0.189697C10.9608 0.189697 5.81798 0.215412 3.16941 2.78684C0.59798 5.43541 0.572266 10.8097 0.572266 17.9968C8.54369 17.7397 12.1823 17.5468 15.1008 14.7183C17.9294 11.7997 18.1351 8.16113 18.3794 0.189697ZM22.0437 14.7183C19.2151 11.7997 19.0094 8.16113 18.7651 0.189697C26.1966 0.189697 31.3265 0.215412 33.9751 2.78684C36.5466 5.43541 36.5723 10.8097 36.5723 17.9968C28.6008 17.7397 24.9623 17.5468 22.0437 14.7183Z" fill="currentColor"/>
    </symbol>
    <!-- тг -->
    <symbol id="tg" viewBox="0 0 16 16">
        <path d="M16 8A8 8 0 1 1 0 8a8 8 0 0 1 16 0M8.287 5.906q-1.168.486-4.666 2.01-.567.225-.595.442c-.03.243.275.339.69.47l.175.055c.408.133.958.288 1.243.294q.39.01.868-.32 3.269-2.206 3.374-2.23c.05-.012.12-.026.166.016s.042.12.037.141c-.03.129-1.227 1.241-1.846 1.817-.193.18-.33.307-.358.336a8 8 0 0 1-.188.186c-.38.366-.664.64.015 1.088.327.216.589.393.85.571.284.194.568.387.936.629q.14.092.27.187c.331.236.63.448.997.414.214-.02.435-.22.547-.82.265-1.417.786-4.486.906-5.751a1.4 1.4 0 0 0-.013-.315.34.34 0 0 0-.114-.217.53.53 0 0 0-.31-.093c-.3.005-.763.166-2.984 1.09" fill="currentColor"/>
    </symbol>
    <!-- youTube -->
    <symbol id="youtube" viewBox="0 0 52 37">
         <path d="M26.4535 0.189697H26.7385C29.3715 0.199307 42.7126 0.295401 46.3097 1.26275C47.3971 1.55797 48.388 2.13343 49.1834 2.9316C49.9788 3.72978 50.5507 4.72272 50.8421 5.81119C51.1656 7.02838 51.3931 8.63956 51.5468 10.302L51.5788 10.6351L51.6493 11.4679L51.6749 11.8011C51.8831 14.7287 51.9088 17.4706 51.912 18.0696V18.3098C51.9088 18.9312 51.8799 21.8589 51.6493 24.9083L51.6237 25.2446L51.5948 25.5777C51.4347 27.4099 51.1977 29.2293 50.8421 30.5682C50.5507 31.6567 49.9788 32.6496 49.1834 33.4478C48.388 34.246 47.3971 34.8214 46.3097 35.1166C42.594 36.116 28.4714 36.1865 26.5143 36.1897H26.0595C25.0697 36.1897 20.9761 36.1705 16.6839 36.0231L16.1394 36.0039L15.8607 35.9911L15.313 35.9687L14.7652 35.9463C11.2098 35.7893 7.82404 35.5363 6.26411 35.1134C5.17706 34.8185 4.1864 34.2435 3.39107 33.4459C2.59574 32.6484 2.02356 31.6561 1.73168 30.5682C1.37613 29.2325 1.1391 27.4099 0.978946 25.5777L0.953321 25.2414L0.927696 24.9083C0.768703 22.7379 0.681104 20.5628 0.665039 18.3867L0.665039 17.9927C0.671445 17.304 0.69707 14.9241 0.87004 12.2975L0.892461 11.9676L0.902071 11.8011L0.927696 11.4679L0.998165 10.6351L1.0302 10.302C1.18395 8.63956 1.41137 7.02518 1.73489 5.81119C2.02628 4.72272 2.59823 3.72978 3.3936 2.9316C4.18896 2.13343 5.17988 1.55797 6.26732 1.26275C7.82724 0.84634 11.213 0.590089 14.7684 0.429932L15.313 0.40751L15.8639 0.388292L16.1394 0.378682L16.6871 0.356261C19.7356 0.258256 22.7853 0.203797 25.8353 0.192901L26.4535 0.189697ZM21.1651 10.4718V25.9044L34.4805 18.1913L21.1651 10.4718Z" fill="currentColor"/>
    </symbol>
    <symbol id="youtube-btn" viewBox="0 0 128 92">
        <path d="M64.5836 1.99997L64.5732 2.00003L63.1361 2.00748C63.1355 2.00748 63.135 2.00748 63.1344 2.00748C56.0098 2.03295 48.886 2.16017 41.765 2.3891L41.7562 2.38939L41.7475 2.38974L40.4834 2.44153L40.4713 2.44198L39.8416 2.46391L38.558 2.50869L38.558 2.50865L38.5454 2.50917L37.2767 2.56139L37.269 2.56174C29.0531 2.93183 20.9245 3.52994 17.0367 4.56772L17.0367 4.56771L17.0285 4.56993C14.1572 5.34948 11.5406 6.86897 9.44047 8.97656C7.3403 11.0841 5.83005 13.706 5.06063 16.5801L5.06004 16.5823C4.26306 19.573 3.72114 23.4646 3.3596 27.3724C3.35949 27.3737 3.35938 27.3749 3.35927 27.3761L3.28532 28.145L3.28422 28.1564L3.28326 28.1678L3.11908 30.1081L3.11843 30.1157L3.11785 30.1234L3.05814 30.8995L3.05668 30.9186L3.05557 30.9377L3.03377 31.3156L2.98222 32.074L2.98195 32.0782C2.57515 38.2554 2.5151 43.8456 2.50009 45.46L2.5 45.4693V45.4786V46.3966V46.4039L2.50005 46.4113C2.53781 51.5253 2.74367 56.6366 3.11729 61.7371L3.11785 61.7444L3.17744 62.519L3.17755 62.5205L3.23714 63.3026L3.23799 63.3138L3.23896 63.3249C3.61413 67.6169 4.17757 72.0056 5.05243 75.2923L5.05345 75.2961C5.82416 78.1687 7.335 80.7888 9.43507 82.8948C11.5352 85.0008 14.151 86.5191 17.0214 87.2979L17.0219 87.298C20.9153 88.3533 29.0506 88.9435 37.2633 89.3061L37.2698 89.3063L38.5459 89.3586L39.812 89.4104L39.822 89.4108L40.4613 89.4402L40.4719 89.4407L40.4826 89.4411L41.7513 89.4859L41.7532 89.4859C51.7844 89.8303 61.3466 89.8752 63.6656 89.8752H64.7254H64.7286C67.0179 89.8714 76.4079 89.8284 86.3166 89.4944C91.2697 89.3274 96.3697 89.0871 100.785 88.7409C105.15 88.3986 109.001 87.9425 111.365 87.3065L111.37 87.3053C114.241 86.5257 116.858 85.0062 118.958 82.8986C121.058 80.791 122.568 78.1692 123.338 75.295L123.339 75.2912C124.213 71.9981 124.777 67.6177 125.152 63.3249L125.152 63.3232L125.219 62.547L125.22 62.5368L125.221 62.5265L125.281 61.7429L125.281 61.7418C125.823 54.5681 125.891 47.6929 125.898 46.2278V46.2174L125.898 45.6577L125.898 45.647C125.891 44.2351 125.831 37.7965 125.341 30.911L125.34 30.8995L125.281 30.1234L125.28 30.1157L125.279 30.1081L125.115 28.1678L125.114 28.1564L125.113 28.145L125.039 27.3761C125.039 27.3752 125.039 27.3743 125.039 27.3733C124.677 23.4643 124.135 19.5808 123.339 16.5836L123.338 16.5801C122.568 13.706 121.058 11.0841 118.958 8.97656L117.541 10.3883L118.958 8.97656C116.858 6.86897 114.241 5.34948 111.37 4.56992L111.365 4.56868C109.073 3.95232 105.392 3.50608 101.209 3.16825C96.9785 2.82656 92.0824 2.58528 87.2755 2.41452C77.659 2.07291 68.3302 2.01124 65.2551 2H65.2478L64.5836 1.99997ZM54.2624 31.4271L79.2967 45.9406L54.2624 60.4421V31.4271Z" fill="#E91D25" stroke="white" stroke-width="4"/>                   
     </symbol>

    <symbol id="arrow" viewBox="0 0 38 38">
       <path fill-rule="evenodd" clip-rule="evenodd" d="M23.963 8.53697C23.2471 7.82101 22.0863 7.82101 21.3703 8.53697L12.8518 17.0555C11.7779 18.1294 11.7779 19.8706 12.8518 20.9445L21.3703 29.463C22.0863 30.179 23.2471 30.179 23.963 29.463C24.679 28.7471 24.679 27.5863 23.963 26.8703L16.0927 19L23.963 11.1297C24.679 10.4137 24.679 9.25293 23.963 8.53697Z" fill="currentColor"/>
    </symbol>

</svg>